<?xml version="1.0" encoding="UTF-8"?>
<!DOCTYPE svg PUBLIC "-//W3C//DTD SVG 1.1//EN" "http://www.w3.org/Graphics/SVG/1.1/DTD/svg11.dtd">
<svg xmlns="http://www.w3.org/2000/svg" version="1.1" width="2279px" height="744px" style="shape-rendering:geometricPrecision; text-rendering:geometricPrecision; image-rendering:optimizeQuality; fill-rule:evenodd; clip-rule:evenodd" xmlns:xlink="http://www.w3.org/1999/xlink">
<g><path style="opacity:0.991" fill="#fefffe" d="M 221.5,98.5 C 309.191,98.021 396.857,98.521 484.5,100C 583.029,117.149 653.196,170.982 695,261.5C 701.098,276.13 706.598,290.963 711.5,306C 675.162,306.833 638.829,306.667 602.5,305.5C 585.793,263.63 558.127,231.13 519.5,208C 500.325,198.122 479.991,192.122 458.5,190C 415.168,189.5 371.835,189.333 328.5,189.5C 328.5,319.5 328.5,449.5 328.5,579.5C 366.501,579.333 404.501,579.5 442.5,580C 467.737,611.239 498.737,634.906 535.5,651C 528.039,655.729 520.039,659.395 511.5,662C 501.026,665.028 490.36,667.028 479.5,668C 393.501,668.5 307.501,668.667 221.5,668.5C 221.5,478.5 221.5,288.5 221.5,98.5 Z"/></g>
<g><path style="opacity:0.986" fill="#fd9919" d="M 620.5,101.5 C 721.167,101.5 821.833,101.5 922.5,101.5C 922.5,290.5 922.5,479.5 922.5,668.5C 828.499,668.667 734.499,668.5 640.5,668C 559.936,657.638 494.77,620.804 445,557.5C 424.816,529.131 409.983,498.131 400.5,464.5C 436.506,464.167 472.506,464.5 508.5,465.5C 531.407,518.909 570.741,553.742 626.5,570C 634.428,571.766 642.428,573.099 650.5,574C 705.832,574.5 761.166,574.667 816.5,574.5C 816.5,448.5 816.5,322.5 816.5,196.5C 770.162,196.833 723.829,196.5 677.5,195.5C 652.724,160.278 620.724,133.778 581.5,116C 586.055,112.555 591.055,109.888 596.5,108C 604.459,105.179 612.459,103.013 620.5,101.5 Z"/></g>
<g><path style="opacity:0.985" fill="#fefffe" d="M 1163.5,111.5 C 1185.17,111.5 1206.83,111.5 1228.5,111.5C 1228.67,170.168 1228.5,228.834 1228,287.5C 1223.49,332.011 1199.32,358.845 1155.5,368C 1144.23,369.661 1132.89,370.661 1121.5,371C 1087.83,371.5 1054.17,371.667 1020.5,371.5C 1020.5,355.833 1020.5,340.167 1020.5,324.5C 1054.85,324.904 1089.19,324.404 1123.5,323C 1142.08,322.147 1154.25,312.98 1160,295.5C 1161.8,287.266 1162.8,278.933 1163,270.5C 1163.5,217.501 1163.67,164.501 1163.5,111.5 Z"/></g>
<g><path style="opacity:0.978" fill="#fefffe" d="M 1382.5,111.5 C 1434.17,111.5 1485.83,111.5 1537.5,111.5C 1537.5,127.167 1537.5,142.833 1537.5,158.5C 1487.47,158.038 1437.47,158.538 1387.5,160C 1357.54,163.958 1340.04,180.791 1335,210.5C 1330.33,237.785 1332.66,264.452 1342,290.5C 1351.07,310.303 1366.57,321.136 1388.5,323C 1416.14,324.419 1443.81,324.919 1471.5,324.5C 1471.5,304.167 1471.5,283.833 1471.5,263.5C 1443.5,263.5 1415.5,263.5 1387.5,263.5C 1387.5,247.833 1387.5,232.167 1387.5,216.5C 1437.5,216.5 1487.5,216.5 1537.5,216.5C 1537.5,268.167 1537.5,319.833 1537.5,371.5C 1484.17,371.667 1430.83,371.5 1377.5,371C 1341.5,371.406 1311.33,358.572 1287,332.5C 1275.91,318.306 1268.57,302.306 1265,284.5C 1258.28,250.743 1259.94,217.409 1270,184.5C 1284.2,146.307 1311.36,123.474 1351.5,116C 1361.92,114.075 1372.25,112.575 1382.5,111.5 Z"/></g>
<g><path style="opacity:0.982" fill="#fefffe" d="M 1581.5,111.5 C 1633.17,111.333 1684.83,111.5 1736.5,112C 1820.62,114.458 1862.29,157.791 1861.5,242C 1861.99,267.881 1857.16,292.715 1847,316.5C 1832.22,345.91 1808.39,363.077 1775.5,368C 1764.56,369.594 1753.56,370.594 1742.5,371C 1688.83,371.5 1635.17,371.667 1581.5,371.5C 1581.5,284.833 1581.5,198.167 1581.5,111.5 Z M 1647.5,158.5 C 1673.84,158.333 1700.17,158.5 1726.5,159C 1753.57,159.772 1772.07,172.605 1782,197.5C 1793.15,227.929 1792.82,258.263 1781,288.5C 1770.4,312.242 1751.9,324.075 1725.5,324C 1699.5,324.5 1673.5,324.667 1647.5,324.5C 1647.5,269.167 1647.5,213.833 1647.5,158.5 Z"/></g>
<g><path style="opacity:0.988" fill="#fefffe" d="M 1868.5,111.5 C 1955.17,111.5 2041.83,111.5 2128.5,111.5C 2128.5,127.167 2128.5,142.833 2128.5,158.5C 2095.5,158.5 2062.5,158.5 2029.5,158.5C 2029.5,229.5 2029.5,300.5 2029.5,371.5C 2007.83,371.5 1986.17,371.5 1964.5,371.5C 1964.5,300.5 1964.5,229.5 1964.5,158.5C 1932.5,158.5 1900.5,158.5 1868.5,158.5C 1868.5,142.833 1868.5,127.167 1868.5,111.5 Z"/></g>
<g><path style="opacity:0.984" fill="#fefffe" d="M 407.5,340.5 C 511.833,340.5 616.167,340.5 720.5,340.5C 724.649,398.935 715.816,455.269 694,509.5C 686.012,527.493 676.012,544.16 664,559.5C 638.899,557.016 615.399,549.516 593.5,537C 586.752,533.085 580.752,528.252 575.5,522.5C 595.93,496.23 608.596,466.564 613.5,433.5C 544.503,432.5 475.503,432.167 406.5,432.5C 407.453,401.851 407.787,371.185 407.5,340.5 Z"/></g>
<g><path style="opacity:0.96" fill="#fefffe" d="M 1180.5,435.5 C 1189.83,435.5 1199.17,435.5 1208.5,435.5C 1208.5,440.167 1208.5,444.833 1208.5,449.5C 1228.17,449.333 1247.84,449.5 1267.5,450C 1276.61,451.11 1282.77,455.944 1286,464.5C 1287.37,470.742 1287.87,477.075 1287.5,483.5C 1290.5,483.5 1293.5,483.5 1296.5,483.5C 1296.5,490.167 1296.5,496.833 1296.5,503.5C 1293.5,503.5 1290.5,503.5 1287.5,503.5C 1287.84,510.574 1287.34,517.574 1286,524.5C 1282.26,530.901 1276.76,535.068 1269.5,537C 1249.17,537.5 1228.84,537.667 1208.5,537.5C 1208.5,541.833 1208.5,546.167 1208.5,550.5C 1234.83,550.5 1261.17,550.5 1287.5,550.5C 1287.5,557.5 1287.5,564.5 1287.5,571.5C 1261.17,571.5 1234.83,571.5 1208.5,571.5C 1208.5,575.5 1208.5,579.5 1208.5,583.5C 1234.83,583.5 1261.17,583.5 1287.5,583.5C 1287.5,590.5 1287.5,597.5 1287.5,604.5C 1261.17,604.5 1234.83,604.5 1208.5,604.5C 1208.5,609.833 1208.5,615.167 1208.5,620.5C 1199.17,620.5 1189.83,620.5 1180.5,620.5C 1180.5,615.167 1180.5,609.833 1180.5,604.5C 1156.5,604.5 1132.5,604.5 1108.5,604.5C 1108.5,597.5 1108.5,590.5 1108.5,583.5C 1132.5,583.5 1156.5,583.5 1180.5,583.5C 1180.5,579.5 1180.5,575.5 1180.5,571.5C 1156.5,571.5 1132.5,571.5 1108.5,571.5C 1108.5,564.5 1108.5,557.5 1108.5,550.5C 1132.5,550.5 1156.5,550.5 1180.5,550.5C 1180.5,546.167 1180.5,541.833 1180.5,537.5C 1156.5,537.5 1132.5,537.5 1108.5,537.5C 1108.5,530.167 1108.5,522.833 1108.5,515.5C 1132.5,515.5 1156.5,515.5 1180.5,515.5C 1180.5,511.5 1180.5,507.5 1180.5,503.5C 1157.17,503.5 1133.83,503.5 1110.5,503.5C 1110.5,496.833 1110.5,490.167 1110.5,483.5C 1133.83,483.5 1157.17,483.5 1180.5,483.5C 1180.5,479.5 1180.5,475.5 1180.5,471.5C 1156.5,471.5 1132.5,471.5 1108.5,471.5C 1108.5,464.167 1108.5,456.833 1108.5,449.5C 1132.5,449.5 1156.5,449.5 1180.5,449.5C 1180.5,444.833 1180.5,440.167 1180.5,435.5 Z M 1208.5,471.5 C 1224.17,471.333 1239.84,471.5 1255.5,472C 1257.33,472.273 1258.83,473.107 1260,474.5C 1260.5,477.482 1260.66,480.482 1260.5,483.5C 1243.17,483.5 1225.83,483.5 1208.5,483.5C 1208.5,479.5 1208.5,475.5 1208.5,471.5 Z M 1208.5,503.5 C 1225.83,503.5 1243.17,503.5 1260.5,503.5C 1260.66,506.518 1260.5,509.518 1260,512.5C 1259.1,513.701 1257.93,514.535 1256.5,515C 1240.5,515.5 1224.5,515.667 1208.5,515.5C 1208.5,511.5 1208.5,507.5 1208.5,503.5 Z"/></g>
<g><path style="opacity:0.937" fill="#fefffe" d="M 1439.5,438.5 C 1450.52,438.168 1461.52,438.501 1472.5,439.5C 1474.83,443.5 1477.17,447.5 1479.5,451.5C 1511.83,452.5 1544.16,452.833 1576.5,452.5C 1576.5,460.833 1576.5,469.167 1576.5,477.5C 1508.5,477.333 1440.5,477.5 1372.5,478C 1367.33,478.827 1363.83,481.661 1362,486.5C 1361.67,524.5 1361.33,562.5 1361,600.5C 1361.37,612.276 1359.37,623.609 1355,634.5C 1347.31,646.096 1336.47,651.43 1322.5,650.5C 1322.17,644.794 1322.5,639.128 1323.5,633.5C 1329.52,629.461 1333.02,623.794 1334,616.5C 1334.33,572.5 1334.67,528.5 1335,484.5C 1336.39,468.87 1344.56,458.703 1359.5,454C 1388.47,452.725 1417.47,452.059 1446.5,452C 1443.91,447.59 1441.57,443.09 1439.5,438.5 Z"/></g>
<g><path style="opacity:0.937" fill="#fefffe" d="M 2082.5,440.5 C 2091.17,440.5 2099.83,440.5 2108.5,440.5C 2108.5,479.5 2108.5,518.5 2108.5,557.5C 2114.17,557.5 2119.83,557.5 2125.5,557.5C 2125.5,565.833 2125.5,574.167 2125.5,582.5C 2119.83,582.5 2114.17,582.5 2108.5,582.5C 2108.5,605.167 2108.5,627.833 2108.5,650.5C 2099.83,650.5 2091.17,650.5 2082.5,650.5C 2082.5,627.833 2082.5,605.167 2082.5,582.5C 2051.83,582.5 2021.17,582.5 1990.5,582.5C 1990.5,574.167 1990.5,565.833 1990.5,557.5C 2021.17,557.5 2051.83,557.5 2082.5,557.5C 2082.5,518.5 2082.5,479.5 2082.5,440.5 Z"/></g>
<g><path style="opacity:0.953" fill="#fefffe" d="M 1749.5,442.5 C 1758.17,442.5 1766.83,442.5 1775.5,442.5C 1775.5,445.833 1775.5,449.167 1775.5,452.5C 1797.83,452.5 1820.17,452.5 1842.5,452.5C 1842.5,459.833 1842.5,467.167 1842.5,474.5C 1840.17,474.5 1837.83,474.5 1835.5,474.5C 1835.67,495.836 1835.5,517.169 1835,538.5C 1832.64,563.278 1823.47,585.111 1807.5,604C 1819.53,618.561 1831.2,633.394 1842.5,648.5C 1832.17,649.833 1821.83,649.833 1811.5,648.5C 1805.19,640.355 1798.69,632.355 1792,624.5C 1785.5,632.833 1779,641.167 1772.5,649.5C 1761.52,650.499 1750.52,650.832 1739.5,650.5C 1739.35,649.448 1739.52,648.448 1740,647.5C 1751.88,632.617 1763.38,617.451 1774.5,602C 1762.29,589.093 1754.13,573.926 1750,556.5C 1748.58,533.868 1748.08,511.202 1748.5,488.5C 1757.52,488.501 1766.52,488.834 1775.5,489.5C 1775.09,508.537 1775.59,527.537 1777,546.5C 1778.69,559.075 1783.19,570.409 1790.5,580.5C 1798.85,569.994 1804.01,557.994 1806,544.5C 1806.93,539.201 1807.6,533.867 1808,528.5C 1808.5,510.503 1808.67,492.503 1808.5,474.5C 1797.5,474.5 1786.5,474.5 1775.5,474.5C 1775.5,477.5 1775.5,480.5 1775.5,483.5C 1766.83,483.5 1758.17,483.5 1749.5,483.5C 1749.5,469.833 1749.5,456.167 1749.5,442.5 Z"/></g>
<g><path style="opacity:0.96" fill="#fefffe" d="M 1042.5,443.5 C 1062.17,443.333 1081.84,443.5 1101.5,444C 1093.41,468.781 1085.41,493.614 1077.5,518.5C 1086.17,519.167 1094.83,519.833 1103.5,520.5C 1096.24,546.378 1088.91,572.212 1081.5,598C 1085.62,614.45 1095.95,624.45 1112.5,628C 1172.17,628.5 1231.83,628.667 1291.5,628.5C 1291.5,636.167 1291.5,643.833 1291.5,651.5C 1227.17,651.667 1162.83,651.5 1098.5,651C 1087.31,649.161 1078.48,643.661 1072,634.5C 1070.03,640.056 1068.53,645.722 1067.5,651.5C 1058.16,651.666 1048.83,651.5 1039.5,651C 1049.32,616.378 1058.99,581.711 1068.5,547C 1058.82,546.832 1049.15,546.332 1039.5,545.5C 1048.36,520.241 1057.03,494.908 1065.5,469.5C 1057.86,468.503 1050.2,468.169 1042.5,468.5C 1042.5,460.167 1042.5,451.833 1042.5,443.5 Z"/></g>
<g><path style="opacity:0.958" fill="#fefffe" d="M 1658.5,443.5 C 1666.83,443.5 1675.17,443.5 1683.5,443.5C 1683.5,457.833 1683.5,472.167 1683.5,486.5C 1686.83,486.5 1690.17,486.5 1693.5,486.5C 1697.17,472.808 1701.01,459.141 1705,445.5C 1713.77,444.184 1722.61,444.184 1731.5,445.5C 1727.5,458.833 1723.5,472.167 1719.5,485.5C 1723.11,486.489 1726.77,486.823 1730.5,486.5C 1730.5,493.5 1730.5,500.5 1730.5,507.5C 1714.83,507.5 1699.17,507.5 1683.5,507.5C 1683.5,520.833 1683.5,534.167 1683.5,547.5C 1675.17,547.5 1666.83,547.5 1658.5,547.5C 1658.5,534.167 1658.5,520.833 1658.5,507.5C 1639.17,507.5 1619.83,507.5 1600.5,507.5C 1600.5,500.5 1600.5,493.5 1600.5,486.5C 1607.53,486.83 1614.53,486.497 1621.5,485.5C 1617.7,472.107 1613.7,458.774 1609.5,445.5C 1618.39,444.184 1627.23,444.184 1636,445.5C 1640.3,459.052 1644.14,472.719 1647.5,486.5C 1651.17,486.5 1654.83,486.5 1658.5,486.5C 1658.5,472.167 1658.5,457.833 1658.5,443.5 Z"/></g>
<g><path style="opacity:0.938" fill="#fefffe" d="M 1881.5,443.5 C 1912.83,443.5 1944.17,443.5 1975.5,443.5C 1975.5,450.833 1975.5,458.167 1975.5,465.5C 1964.83,465.5 1954.17,465.5 1943.5,465.5C 1943.5,470.833 1943.5,476.167 1943.5,481.5C 1954.5,481.5 1965.5,481.5 1976.5,481.5C 1976.5,489.5 1976.5,497.5 1976.5,505.5C 1965.5,505.5 1954.5,505.5 1943.5,505.5C 1943.5,553.833 1943.5,602.167 1943.5,650.5C 1934.83,650.5 1926.17,650.5 1917.5,650.5C 1917.5,602.167 1917.5,553.833 1917.5,505.5C 1905.17,505.5 1892.83,505.5 1880.5,505.5C 1880.5,497.5 1880.5,489.5 1880.5,481.5C 1892.83,481.5 1905.17,481.5 1917.5,481.5C 1917.5,476.167 1917.5,470.833 1917.5,465.5C 1905.5,465.5 1893.5,465.5 1881.5,465.5C 1881.5,458.167 1881.5,450.833 1881.5,443.5 Z"/></g>
<g><path style="opacity:0.935" fill="#fefffe" d="M 1995.5,449.5 C 2019.49,456.495 2043.49,463.495 2067.5,470.5C 2068.5,478.807 2068.83,487.14 2068.5,495.5C 2044.49,488.775 2020.49,481.942 1996.5,475C 1995.52,466.585 1995.18,458.085 1995.5,449.5 Z"/></g>
<g><path style="opacity:0.935" fill="#fefffe" d="M 1995.5,502.5 C 2019.49,509.495 2043.49,516.495 2067.5,523.5C 2068.5,531.807 2068.83,540.14 2068.5,548.5C 2044.49,541.775 2020.49,534.942 1996.5,528C 1995.52,519.585 1995.18,511.085 1995.5,502.5 Z"/></g>
<g><path style="opacity:0.942" fill="#fefffe" d="M 1622.5,511.5 C 1631.19,511.169 1639.86,511.502 1648.5,512.5C 1644.09,524.052 1640.09,535.719 1636.5,547.5C 1627.49,547.666 1618.49,547.5 1609.5,547C 1613.94,535.193 1618.27,523.36 1622.5,511.5 Z"/></g>
<g><path style="opacity:0.942" fill="#fefffe" d="M 1692.5,511.5 C 1701.17,511.334 1709.84,511.5 1718.5,512C 1722.83,523.667 1727.17,535.333 1731.5,547C 1722.51,547.5 1713.51,547.666 1704.5,547.5C 1700.7,535.438 1696.7,523.438 1692.5,511.5 Z"/></g>
<g><path style="opacity:0.94" fill="#fefffe" d="M 1885.5,511.5 C 1892.83,511.5 1900.17,511.5 1907.5,511.5C 1907.67,553.835 1907.5,596.168 1907,638.5C 1902.74,647.548 1895.57,651.215 1885.5,649.5C 1885.5,603.5 1885.5,557.5 1885.5,511.5 Z"/></g>
<g><path style="opacity:0.937" fill="#fefffe" d="M 1952.5,511.5 C 1959.83,511.5 1967.17,511.5 1974.5,511.5C 1974.67,553.835 1974.5,596.168 1974,638.5C 1969.58,646.464 1962.75,650.464 1953.5,650.5C 1952.5,604.171 1952.17,557.838 1952.5,511.5 Z"/></g>
<g><path style="opacity:0.939" fill="#fefffe" d="M 1612.5,552.5 C 1620.83,552.5 1629.17,552.5 1637.5,552.5C 1637.5,554.833 1637.5,557.167 1637.5,559.5C 1667.5,559.5 1697.5,559.5 1727.5,559.5C 1727.67,573.171 1727.5,586.837 1727,600.5C 1725.95,602.09 1724.79,603.59 1723.5,605C 1715.28,608.941 1706.95,612.608 1698.5,616C 1709.59,621.295 1720.76,626.462 1732,631.5C 1732.5,638.826 1732.67,646.159 1732.5,653.5C 1711.06,645.572 1689.72,637.239 1668.5,628.5C 1646.5,637.497 1624.5,646.497 1602.5,655.5C 1601.34,647.855 1601.17,640.188 1602,632.5C 1614.57,627.129 1627.07,621.629 1639.5,616C 1630.06,613.7 1621.9,609.2 1615,602.5C 1614.33,601.167 1613.67,599.833 1613,598.5C 1612.5,592.175 1612.33,585.842 1612.5,579.5C 1609.17,579.5 1605.83,579.5 1602.5,579.5C 1602.5,572.833 1602.5,566.167 1602.5,559.5C 1605.83,559.5 1609.17,559.5 1612.5,559.5C 1612.5,557.167 1612.5,554.833 1612.5,552.5 Z M 1637.5,579.5 C 1667.17,579.333 1696.84,579.5 1726.5,580C 1707.49,587.836 1688.49,595.67 1669.5,603.5C 1658.66,599.502 1648.16,594.836 1638,589.5C 1637.5,586.183 1637.33,582.85 1637.5,579.5 Z"/></g>
</svg>
